<?xml version="1.0"?>


<svg width="210mm" height="297mm" viewBox="0 0 210 297" version="1.1" id="svg1" xml:space="preserve" xmlns:inkscape="http://www.inkscape.org/namespaces/inkscape" xmlns:sodipodi="http://sodipodi.sourceforge.net/DTD/sodipodi-0.dtd" xmlns="http://www.w3.org/2000/svg" xmlns:svg="http://www.w3.org/2000/svg"><namedview id="namedview1" pagecolor="#ffffff" bordercolor="#000000" borderopacity="0.25"></namedview><defs id="defs1"></defs><g id="layer1"><path style="fill:#ffffff;fill-opacity:1" d="M 96.947488,139.98656 V 68.517888 h 5.547172 5.54717 v 71.468672 71.46867 h -5.54717 -5.547172 z m 17.254752,70.79792 c -0.13468,-0.34219 -0.41244,-7.58919 -0.61724,-16.10445 -0.46098,-19.16623 -0.51488,-126.274572 -0.0635,-126.097752 0.18082,0.0708 2.7897,1.43259 5.79751,3.02615 5.86136,3.10539 8.69294,5.20631 9.08861,6.74337 0.13578,0.52744 -0.28474,7.70078 -0.93447,15.94076 -0.64973,8.239982 -1.81311,23.760842 -2.58528,34.490802 -4.26941,59.32699 -5.13,69.3516 -6.52529,76.01089 -0.41433,1.97743 -1.07841,4.13553 -1.47574,4.79578 -0.88227,1.46607 -2.32508,2.10801 -2.68464,1.19445 z m 13.05938,-0.0933 c -0.36126,-1.10975 0.24886,-13.81629 2.57877,-53.70672 2.45455,-42.02433 4.03431,-65.333992 5.34801,-78.910952 0.3241,-3.3496 0.58928,-6.35384 0.58928,-6.6761 0,-2.01403 3.84402,0.36773 10.55715,6.54124 l 3.47218,3.19308 -1.08269,7.69705 C 137.26023,170.3287 132.43951,200.78864 129.83851,208.15951 c -1.13559,3.2181 -2.05833,4.12465 -2.57689,2.53167 z m 35.52309,0.32516 c -7.63304,-0.33889 -10.13669,-0.74045 -10.50863,-1.68546 -0.19216,-0.48823 12.94225,-78.98471 15.83698,-94.64814 4.35869,-23.584942 7.89479,-41.235142 8.46581,-42.256482 0.38938,-0.69647 5.43866,5.31488 16.0914,19.15741 l 8.08855,10.510532 v 54.68049 54.68049 l -15.35378,-0.0581 c -8.44457,-0.032 -18.62372,-0.20329 -22.62033,-0.38073 z m -22.82149,-0.2941 c -0.12085,-0.19065 1.10921,-11.88157 2.73347,-25.97983 1.62426,-14.09826 3.41086,-29.63158 3.97022,-34.5185 0.55937,-4.88691 2.17794,-18.88125 3.59684,-31.09853 1.41889,-12.21728 3.20819,-27.776202 3.97622,-34.575382 1.6598,-14.69387 1.5538,-14.10057 2.5193,-14.10057 0.81728,0 4.91236,3.11451 9.24671,7.0326 l 2.69057,2.43216 -5.76962,31.678012 c -12.16742,66.80514 -17.25708,92.35775 -19.38528,97.32388 -0.69582,1.62367 -2.96734,2.77019 -3.57843,1.80616 z M 28.816863,208.05512 C 26.633998,204.84045 22.615878,198.2703 15.986975,187.07661 L 8.9852116,175.25329 V 121.85551 68.457728 l 22.8820784,0.1491 c 24.918995,0.16237 25.457847,0.2083 25.457226,2.17017 -1.78e-4,0.56352 -0.259426,2.24148 -0.576107,3.72881 -0.316681,1.48732 -3.172051,16.35087 -6.345267,33.030112 -3.173217,16.67924 -7.027264,36.93192 -8.56455,45.00595 -5.998245,31.50357 -11.079307,55.99592 -11.752574,56.65118 -0.164404,0.16001 -0.735524,-0.35206 -1.269155,-1.13793 z m 21.699152,0.8016 c -1.112025,-1.2512 -5.318801,-7.581 -7.812433,-11.75512 l -2.459047,-4.11622 5.745347,-30.84548 c 3.159941,-16.96501 6.476965,-34.93078 7.371164,-39.92393 6.643467,-37.096662 10.126798,-52.185852 12.310062,-53.325082 1.005928,-0.52489 3.262619,-0.46383 4.061343,0.1099 0.629489,0.45216 0.610368,0.91319 -0.300421,7.24344 -1.051617,7.30905 -6.87846,51.838542 -10.135471,77.456592 -4.002742,31.4836 -7.337002,54.95718 -7.889389,55.54221 -0.155203,0.16438 -0.556222,-0.009 -0.891155,-0.38631 z m 37.575333,-3.48599 c -1.371183,-2.07162 -3.970846,-6.17083 -5.777028,-9.10936 l -3.283968,-5.34277 2.014227,-26.72155 c 1.107825,-14.69685 2.474094,-32.97989 3.036155,-40.62897 1.388349,-18.89403 3.255914,-40.770332 3.941064,-46.164902 0.58798,-4.62952 1.57612,-8.49897 2.17036,-8.49897 0.19033,0 0.4541,0.65191 0.58616,1.44869 0.57,3.43915 1.00755,36.221262 1.0119,75.814732 0.005,43.839 -0.25688,62.9697 -0.86144,62.9697 -0.1894,0 -1.46625,-1.69497 -2.83743,-3.7666 z m -18.577871,0.9995 c -0.972761,-1.3465 -3.701645,-5.46327 -6.064188,-9.14839 l -4.295531,-6.7002 1.041707,-7.40037 C 72.960227,92.439328 74.793212,80.274498 76.766921,73.142758 c 1.099812,-3.97402 1.848028,-4.94627 3.397604,-4.41494 2.153479,0.7384 2.246051,1.47619 1.53838,12.26084 -2.755548,41.993592 -9.479008,126.883952 -10.098716,127.506312 -0.177131,0.17789 -1.117952,-0.77825 -2.090712,-2.12474 z" id="path1"></path></g></svg>